# xmcd
#
# Track frame offsets:
#	150
#	22780
#	47205
#	67662
#	86132
#	103870
#	116575
#	138887
#	165987
#	181322
#	192152
#	204155
#	216810
#	234472
#	248427
#
# Disc length: 3477 seconds
#
# Revision: 3
# Processed by: cddbd v1.4PL0 Copyright (c) Steve Scherf et al.
# Submitted via: audiograbber 1.81.03
#
DISCID=ba0d930f
DTITLE=Various Artist - All About Blues - Cd2
DYEAR=1999
DGENRE=Blues
TTITLE0=Big John's Blues Fantasy - Still Got The Blues
TTITLE1=Bernard Allison - The Way Love Was Meant To Be
TTITLE2=Spooky Tooth - Sunshine
TTITLE3=Bobby Bland - Members Only
TTITLE4=Luther Allison - Gave It All
TTITLE5=Jimmy Whitterspoon - Nobody Knows You
TTITLE6=Roberto Ciotti - Early On Sunday
TTITLE7=Joanna Connor - Heart Of The Blues
TTITLE8=Albert King - Born Under A Bad Sign
TTITLE9=Howlin' Wolf - Little Red Rooster
TTITLE10=John Lee Hooker - I'm In The Mood
TTITLE11=Elmore James - The Sky Is Crying
TTITLE12=Mississippi John Hurt - Casey Jones
TTITLE13=Canned Heat - Louise
TTITLE14=Bo Diddley - Road Runner
EXTD=
EXTT0=
EXTT1=
EXTT2=
EXTT3=
EXTT4=
EXTT5=
EXTT6=
EXTT7=
EXTT8=
EXTT9=
EXTT10=
EXTT11=
EXTT12=
EXTT13=
EXTT14=
PLAYORDER=
